<svg xmlns="http://www.w3.org/2000/svg" width="9" height="16" viewBox="0 0 9 16">
  <defs>
    <style>
      .cls-1 {
        fill: #3d4677;
        fill-rule: evenodd;
      }
    </style>
  </defs>
  <path class="cls-1" d="M399.661,7196H397.5a3.711,3.711,0,0,0-3.992,3.93v1.82h-2.171a0.33,0.33,0,0,0-.339.33v2.63a0.328,0.328,0,0,0,.339.32h2.171v6.64a0.336,0.336,0,0,0,.339.33h2.832a0.336,0.336,0,0,0,.339-0.33v-6.64h2.538a0.328,0.328,0,0,0,.339-0.32v-2.63a0.353,0.353,0,0,0-.1-0.24,0.348,0.348,0,0,0-.24-0.09H397.02v-1.54a0.95,0.95,0,0,1,1.186-1.12h1.454a0.328,0.328,0,0,0,.34-0.32v-2.44A0.336,0.336,0,0,0,399.661,7196Z" transform="translate(-391 -7196)"/>
</svg>
