<svg xmlns="http://www.w3.org/2000/svg" width="152" height="46" viewBox="0 0 152 46">
  <defs>
    <style>
      .cls-1 {
        fill: #32325d;
        fill-rule: evenodd;
      }
    </style>
  </defs>
  <path id="Logo" class="cls-1" d="M471.661,63.6a2.113,2.113,0,0,0-2.157,2.069v6.944a5.022,5.022,0,0,1-10.038,0V65.68a2.112,2.112,0,0,0-2.148-2.077h-0.009a2.113,2.113,0,0,0-2.158,2.069v6.944a9.345,9.345,0,0,0,18.667,0V65.68A2.113,2.113,0,0,0,471.67,63.6h-0.01M424.5,77.472a4.858,4.858,0,1,1,5.018-4.856,4.94,4.94,0,0,1-5.018,4.856m0-13.87a9.018,9.018,0,1,0,9.333,9.013A9.192,9.192,0,0,0,424.5,63.6m60.176,13.87a4.858,4.858,0,1,1,5.018-4.856,4.941,4.941,0,0,1-5.018,4.856m0-13.87a9.653,9.653,0,0,0-4.667,1.214l-0.352.21V56.434a2.159,2.159,0,0,0-4.315,0v16.2a9.337,9.337,0,1,0,9.6-9.033q-0.131,0-.261,0m-80.039,13.87a4.858,4.858,0,1,1,5.018-4.856,4.94,4.94,0,0,1-5.018,4.856m7.175-13.87a2.183,2.183,0,0,0-1.969,1.24l-0.117.233-0.234-.14a9.689,9.689,0,0,0-4.878-1.331,9.017,9.017,0,1,0-.6,18.025q0.3,0.01.6,0a9.653,9.653,0,0,0,4.667-1.214l0.352-.21v1.63a4.942,4.942,0,0,1-5.019,4.856,5.013,5.013,0,0,1-4.666-3.035l-0.07-.21a2.135,2.135,0,0,0-2.017-1.378,2.659,2.659,0,0,0-.728.117,2.06,2.06,0,0,0-1.337,2.592l0.024,0.092,0.024,0.047a9.333,9.333,0,0,0,8.747,5.93,9.192,9.192,0,0,0,9.333-9.013V65.68a2.047,2.047,0,0,0-2.018-2.077h-0.092m32.666,0a9.653,9.653,0,0,0-4.667,1.214l-0.351.21V56.434a2.16,2.16,0,0,0-4.316,0v23.14a2.114,2.114,0,0,0,2.149,2.077h0.009a2.115,2.115,0,0,0,2.158-2.068V72.639a5.021,5.021,0,0,1,10.037,0v6.936a2.114,2.114,0,0,0,2.149,2.077h0.009a2.113,2.113,0,0,0,2.157-2.068s0-.006,0-0.009V72.639a9.2,9.2,0,0,0-9.334-9.036m-79.36,32.41a22.967,22.967,0,0,1-16.346-39.251,7.254,7.254,0,0,1,10.225,0,7.177,7.177,0,0,1,0,10.18h0a8.559,8.559,0,0,0,0,12.142,8.65,8.65,0,0,0,12.195,0,8.557,8.557,0,0,0,1.229-10.605l-5.934,5.908a1.963,1.963,0,0,1-2.767-.071,1.944,1.944,0,0,1,0-2.684l7.475-7.442a2.035,2.035,0,0,1,2.767,0,12.475,12.475,0,0,1,0,17.652,12.608,12.608,0,0,1-17.729,0,12.475,12.475,0,0,1,0-17.652,3.3,3.3,0,0,0,.99-2.341,3.265,3.265,0,0,0-.986-2.335,3.408,3.408,0,0,0-4.714,0,19.05,19.05,0,0,0,.014,27.024,19.253,19.253,0,0,0,27.143-.013A19.109,19.109,0,0,0,365.1,53.914a1.938,1.938,0,0,1-1.946-1.931V51.977a1.977,1.977,0,0,1,1.967-1.962A23,23,0,1,1,365.123,96.013Z" transform="translate(-342 -50)"/>
</svg>
