<svg xmlns="http://www.w3.org/2000/svg" width="152" height="46" viewBox="0 0 152 46">
  <defs>
    <style>
      .cls-1 {
        fill: #fff;
        fill-rule: evenodd;
      }
    </style>
  </defs>
  <path id="Logo" class="cls-1" d="M487.662,6943.6a2.119,2.119,0,0,0-2.158,2.07v6.95a5.022,5.022,0,0,1-10.038,0v-6.94a2.116,2.116,0,0,0-2.148-2.08h-0.009a2.119,2.119,0,0,0-2.158,2.07v6.95a9.346,9.346,0,0,0,18.667,0v-6.94a2.117,2.117,0,0,0-2.149-2.08H487.66M440.5,6957.47a4.857,4.857,0,1,1,5.018-4.85,4.934,4.934,0,0,1-5.018,4.85m0-13.87a9.019,9.019,0,1,0,9.333,9.02,9.191,9.191,0,0,0-9.333-9.02m60.176,13.87a4.857,4.857,0,1,1,5.018-4.85,4.935,4.935,0,0,1-5.018,4.85m0-13.87a9.651,9.651,0,0,0-4.667,1.22l-0.351.21v-8.6a2.16,2.16,0,0,0-4.316,0v16.21a9.337,9.337,0,1,0,9.6-9.03,2.278,2.278,0,0,0-.261-0.01m-80.039,13.87a4.857,4.857,0,1,1,5.018-4.85,4.934,4.934,0,0,1-5.018,4.85m7.175-13.87a2.2,2.2,0,0,0-1.969,1.24l-0.117.24-0.234-.14a9.73,9.73,0,0,0-4.878-1.34,9.02,9.02,0,1,0-.6,18.03q0.3,0.015.6,0a9.641,9.641,0,0,0,4.667-1.21l0.351-.21v1.63a4.934,4.934,0,0,1-5.018,4.85,5.01,5.01,0,0,1-4.666-3.03l-0.07-.21a2.127,2.127,0,0,0-2.017-1.38,2.263,2.263,0,0,0-.728.12,2.051,2.051,0,0,0-1.336,2.59l0.023,0.09,0.024,0.05a9.332,9.332,0,0,0,8.747,5.93,9.191,9.191,0,0,0,9.333-9.02v-16.15a2.049,2.049,0,0,0-2.018-2.08h-0.092m32.666,0a9.651,9.651,0,0,0-4.667,1.22l-0.351.21v-8.6a2.16,2.16,0,0,0-4.316,0v23.14a2.11,2.11,0,0,0,2.149,2.08h0.009a2.114,2.114,0,0,0,2.158-2.07v-6.94a5.021,5.021,0,0,1,10.037,0v6.93a2.11,2.11,0,0,0,2.149,2.08h0.009a2.112,2.112,0,0,0,2.157-2.07,0.016,0.016,0,0,0,0-.01v-6.93a9.205,9.205,0,0,0-9.334-9.04m-79.36,32.41a22.966,22.966,0,0,1-16.346-39.25,7.254,7.254,0,0,1,10.224,0,7.175,7.175,0,0,1,0,10.18h0a8.557,8.557,0,0,0,0,12.14,8.609,8.609,0,0,0,13.424-10.6l-5.934,5.91a1.965,1.965,0,0,1-2.767-.07,1.938,1.938,0,0,1,0-2.68l7.475-7.45a2.042,2.042,0,0,1,2.767,0,12.485,12.485,0,0,1,0,17.66,12.62,12.62,0,0,1-17.729,0,12.485,12.485,0,0,1,0-17.66,3.279,3.279,0,0,0,.989-2.34,3.241,3.241,0,0,0-.985-2.33,3.412,3.412,0,0,0-4.714,0,19.045,19.045,0,0,0,.014,27.02,19.257,19.257,0,0,0,27.143-.01,19.112,19.112,0,0,0-13.578-32.62,1.932,1.932,0,0,1-1.946-1.93h0a1.986,1.986,0,0,1,1.967-1.97A23,23,0,1,1,381.123,6976.01Z" transform="translate(-358 -6930)"/>
</svg>
