<svg xmlns="http://www.w3.org/2000/svg" width="16" height="16" viewBox="0 0 16 16">
  <defs>
    <style>
      .cls-1 {
        fill: #3d4677;
        fill-rule: evenodd;
      }
    </style>
  </defs>
  <path class="cls-1" d="M491.928,7200.08a8.111,8.111,0,0,0-2.912-2.99,7.943,7.943,0,0,0-8.032,0,8.1,8.1,0,0,0-2.912,2.99A8.188,8.188,0,0,0,477,7204.2a8.1,8.1,0,0,0,1.527,4.82,7.84,7.84,0,0,0,3.943,2.96,0.461,0.461,0,0,0,.417-0.07,0.427,0.427,0,0,0,.135-0.32c0-.02,0-0.22,0-0.58s0-.68,0-0.95l-0.24.04a3.131,3.131,0,0,1-.578.04,4.624,4.624,0,0,1-.724-0.07,1.632,1.632,0,0,1-.7-0.33,1.312,1.312,0,0,1-.459-0.65l-0.1-.25a2.732,2.732,0,0,0-.328-0.54,1.262,1.262,0,0,0-.453-0.41l-0.073-.05a0.98,0.98,0,0,1-.136-0.13,0.613,0.613,0,0,1-.093-0.15,0.087,0.087,0,0,1,.052-0.12,0.681,0.681,0,0,1,.3-0.05l0.209,0.03a1.612,1.612,0,0,1,.515.26,1.743,1.743,0,0,1,.5.55,1.788,1.788,0,0,0,.579.67,1.228,1.228,0,0,0,.682.23,3.363,3.363,0,0,0,.594-0.05,2.377,2.377,0,0,0,.469-0.16,1.721,1.721,0,0,1,.51-1.1,7.338,7.338,0,0,1-1.068-.19,4.532,4.532,0,0,1-.979-0.42,2.73,2.73,0,0,1-.839-0.72,3.441,3.441,0,0,1-.547-1.12,5.467,5.467,0,0,1-.213-1.6,3.168,3.168,0,0,1,.823-2.2,2.945,2.945,0,0,1,.072-2.18,1.449,1.449,0,0,1,.9.14,6.454,6.454,0,0,1,.871.42c0.184,0.11.331,0.2,0.442,0.28a7.546,7.546,0,0,1,4,0l0.4-.25a5.424,5.424,0,0,1,.959-0.47,1.387,1.387,0,0,1,.844-0.12,2.916,2.916,0,0,1,.083,2.18,3.173,3.173,0,0,1,.823,2.2,5.584,5.584,0,0,1-.214,1.61,3.365,3.365,0,0,1-.552,1.12,2.9,2.9,0,0,1-.844.71,4.532,4.532,0,0,1-.979.42,7.338,7.338,0,0,1-1.068.19,1.911,1.911,0,0,1,.541,1.51v2.26a0.434,0.434,0,0,0,.131.32,0.447,0.447,0,0,0,.411.07,7.842,7.842,0,0,0,3.944-2.96A8.1,8.1,0,0,0,493,7204.2,8.2,8.2,0,0,0,491.928,7200.08Z" transform="translate(-477 -7196)"/>
</svg>
