<svg xmlns="http://www.w3.org/2000/svg" width="17" height="16" viewBox="0 0 17 16">
  <defs>
    <style>
      .cls-1 {
        fill: #3d4677;
        fill-rule: evenodd;
      }
    </style>
  </defs>
  <path class="cls-1" d="M361,7205.81V7212h-3.644v-5.78c0-1.45-.527-2.44-1.846-2.44a2,2,0,0,0-1.869,1.31,2.46,2.46,0,0,0-.121.88V7212h-3.645s0.049-9.79,0-10.8h3.645v1.53a0.12,0.12,0,0,0-.024.04h0.024v-0.04a3.634,3.634,0,0,1,3.284-1.78C359.2,7200.95,361,7202.49,361,7205.81ZM346.062,7196a1.872,1.872,0,1,0-.048,3.73h0.024A1.873,1.873,0,1,0,346.062,7196Zm-1.845,16h3.643v-10.8h-3.643V7212Z" transform="translate(-344 -7196)"/>
</svg>
