<svg xmlns="http://www.w3.org/2000/svg" width="20" height="17" viewBox="0 0 20 17">
  <defs>
    <style>
      .cls-1 {
        fill: #845cff;
        fill-rule: evenodd;
      }
    </style>
  </defs>
  <path class="cls-1" d="M1545.23,6577h-12.31a0.777,0.777,0,0,0-.77.77v6.96a1.5,1.5,0,0,1-1.53,1.54h-3.85a0.777,0.777,0,0,0-.77.77v6.19a0.777,0.777,0,0,0,.77.77h18.46a0.777,0.777,0,0,0,.77-0.77v-15.46A0.777,0.777,0,0,0,1545.23,6577Zm-2.31,9.27a3.22,3.22,0,0,1-3.07,3.09h-2.76l1.38,1.39a0.773,0.773,0,0,1,0,1.09,0.761,0.761,0,0,1-1.09,0l-2.69-2.7a0.785,0.785,0,0,1,0-1.1l2.69-2.7a0.771,0.771,0,1,1,1.09,1.09l-1.38,1.39h2.76a1.706,1.706,0,0,0,1.53-1.55v-1.54a0.77,0.77,0,1,1,1.54,0v1.54Z" transform="translate(-1526 -6577)"/>
</svg>
