<svg xmlns="http://www.w3.org/2000/svg" width="20" height="20" viewBox="0 0 20 20">
  <defs>
    <style>
      .cls-1 {
        fill: #7a69e6;
        fill-rule: evenodd;
      }
    </style>
  </defs>
  <path class="cls-1" d="M1156.87,6051.41a0.707,0.707,0,0,0-1,1l3.26,3.25a0.711,0.711,0,0,0,.51.21h0.03a0.791,0.791,0,0,0,.52-0.26l8.16-9.76a0.723,0.723,0,0,0-.09-1,0.733,0.733,0,0,0-1,.09l-7.68,9.17Zm9.43-7.88a10.006,10.006,0,1,0,3.17,3.17,0.7,0.7,0,0,0-.96-0.23,0.712,0.712,0,0,0-.23.97,8.489,8.489,0,0,1-1.21,10.63,8.588,8.588,0,1,1-1.51-13.35,0.7,0.7,0,0,0,.96-0.23A0.688,0.688,0,0,0,1166.3,6043.53Z" transform="translate(-1151.03 -6042)"/>
</svg>
