<svg xmlns="http://www.w3.org/2000/svg" width="17" height="14" viewBox="0 0 17 14">
  <defs>
    <style>
      .cls-1 {
        fill: #3d4677;
        fill-rule: evenodd;
      }
    </style>
  </defs>
  <path class="cls-1" d="M446.531,7197.25a6.864,6.864,0,0,1-2.216.86,3.442,3.442,0,0,0-2.545-1.11,3.509,3.509,0,0,0-3.488,3.53,3.649,3.649,0,0,0,.09.81,9.869,9.869,0,0,1-7.188-3.7,3.572,3.572,0,0,0,1.079,4.72,3.515,3.515,0,0,1-1.579-.44v0.04a3.536,3.536,0,0,0,2.8,3.47,3.47,3.47,0,0,1-.918.12,3.544,3.544,0,0,1-.657-0.06,3.5,3.5,0,0,0,3.257,2.45,6.933,6.933,0,0,1-4.331,1.52,7.6,7.6,0,0,1-.832-0.05,9.8,9.8,0,0,0,5.346,1.59,9.93,9.93,0,0,0,9.923-10.06l-0.012-.46a6.951,6.951,0,0,0,1.743-1.83,7.088,7.088,0,0,1-2,.56A3.539,3.539,0,0,0,446.531,7197.25Z" transform="translate(-430 -7197)"/>
</svg>
